<svg xmlns="http://www.w3.org/2000/svg"  viewBox="0 0 300 79.73909309111446" class="css-1j8o68f"><defs id="SvgjsDefs1367"></defs><g id="SvgjsG1368" featurekey="symbolFeature-0" transform="matrix(0.963855421686747,0,0,0.963855421686747,-8.19277108433735,-8.32322453878012)" fill="#ffffff"><path xmlns="http://www.w3.org/2000/svg" d="M32.628212,8.6361885c-1.3350086,2.6396627-2.1030216,5.61516-2.1008072,8.7757549  c0.0030556,8.8963432,5.9801903,16.3825207,14.1322403,18.705534c3.6843719-7.3044529,2.4856567-16.4400749-3.6176529-22.5373764  C38.6159935,11.1556845,35.708065,9.5134058,32.628212,8.6361885z"></path><path xmlns="http://www.w3.org/2000/svg" d="M36.6367226,44.4209976c-2.2498589-8.2716866-9.7946415-14.3607674-18.7788963-14.3561306  C14.4649076,30.0661316,11.2771158,30.9387112,8.5,32.4654617c0.8604574,3.1732445,2.5209713,6.1744614,5.014431,8.6644402  C19.7794399,47.3903809,29.2442551,48.4790459,36.6367226,44.4209976z"></path><path xmlns="http://www.w3.org/2000/svg" d="M55.8574944,63.100174c-4.2872086,7.4469681-3.2679024,17.1136398,3.1020927,23.474884  c2.2940254,2.2922363,5.0209694,3.880127,7.9149857,4.7891769c1.6449127-2.858284,2.5996017-6.1639252,2.5978088-9.6987228  C69.4694366,72.9555359,63.745388,65.5863647,55.8574944,63.100174z"></path><path xmlns="http://www.w3.org/2000/svg" d="M63.6276436,55.5768967c2.5443764,7.7994499,9.8681145,13.438858,18.5163231,13.4329529  c3.2794952-0.0010529,6.3647232-0.8215637,9.0758514-2.254921c-0.9208527-2.8249702-2.486496-5.485714-4.7325592-7.7296715  C80.2964554,52.8389931,70.9795303,51.6921387,63.6276436,55.5768967z"></path><path xmlns="http://www.w3.org/2000/svg" d="M30.5274048,81.6813278c0.0012646,3.5291061,0.9556408,6.8292618,2.5986557,9.6833267  c2.8991814-0.9107361,5.6306572-2.5032654,7.9271049-4.8024521c6.3580856-6.3627243,7.3740196-16.0220184,3.0891266-23.4626579  C36.2468147,65.587204,30.5213947,72.9648132,30.5274048,81.6813278z"></path><path xmlns="http://www.w3.org/2000/svg" d="M36.3721466,55.576683c-7.3567352-3.8893929-16.6797752-2.7372704-22.8689957,3.4578514  c-2.241004,2.242691-3.8027496,4.9006958-4.72192,7.7218742c2.7157688,1.4356766,5.8073206,2.2557602,9.0932493,2.2534409  C26.5151005,69.006897,33.8301964,63.3696022,36.3721466,55.576683z"></path><path xmlns="http://www.w3.org/2000/svg" d="M69.4723816,17.3963432c-0.0010529-3.1555357-0.7696991-6.1255512-2.1030197-8.7609978  c-3.0833282,0.8789034-5.9938965,2.5245552-8.4208412,4.9538212c-6.0945625,6.0989876-7.2872696,15.2284966-3.6074257,22.5278873  C63.4990463,33.7925644,69.4770203,26.2994328,69.4723816,17.3963432z"></path><path xmlns="http://www.w3.org/2000/svg" d="M63.3639107,44.4203644c7.3991051,4.060791,16.8699303,2.9689598,23.1346245-3.3035316  c2.4859772-2.4876633,4.1424866-5.4840279,5.0014648-8.6517944c-2.7815399-1.5288563-5.9742889-2.4018574-9.3726883-2.4001713  C73.1491699,30.0682411,65.6136627,36.1560555,63.3639107,44.4203644z"></path></g><g id="SvgjsG1369" featurekey="nameFeature-0" transform="matrix(1.983740447709781,0,0,1.983740447709781,98.4487744342786,-7.730820199911735)" fill="#ffffff"><path d="M16.68 8.359000000000002 l-0.019531 0.078125 c2.1875 0 4.2383 0.41016 6.1719 1.25 s3.6328 1.9727 5.0977 3.3984 l-4.4922 4.4922 c-1.8945 -1.875 -4.1406 -2.8125 -6.7383 -2.8125 c-2.6367 0 -4.8828 0.9375 -6.7383 2.8125 s-2.793 4.1211 -2.793 6.7383 c0 2.6367 0.9375 4.8828 2.793 6.7383 s4.1016 2.793 6.7383 2.793 s4.8828 -0.9375 6.7578 -2.8125 l4.4922 4.4922 c-1.4648 1.4453 -3.1641 2.5781 -5.0977 3.418 s-3.9844 1.25 -6.1719 1.25 c-4.375 0 -8.125 -1.5625 -11.23 -4.668 s-4.668 -6.8555 -4.668 -11.23 s1.5625 -8.125 4.668 -11.25 s6.8555 -4.6875 11.23 -4.6875 z M30.2734375 8.515999999999998 l6.3086 0 l0 12.598 l9.4336 0 l0 -12.598 l6.3086 0 l0 31.484 l-6.3086 0 l0 -12.598 l-9.4336 0 l0 12.598 l-6.3086 0 l0 -31.484 z M66.15271875 29.59 l5.5664 0 l-2.7734 -6.543 z M63.57421875 35.1562 l-0.078125 0.23438 l-2.0508 4.5313 l-1.0938 0 l-0.25391 0 l-4.1016 0 l-1.3477 0 l14.277 -31.992 l14.316 31.992 l-1.3477 0 l-4.1016 0 l-0.27344 0 l-1.0938 0 l-2.0313 -4.5508 l-0.097656 -0.21484 l-10.723 0 z M87.42190625 8.515999999999998 l6.3086 0 l7.8711 0 l0 6.2891 l-7.8711 0 l0 25.195 l-6.3086 0 l0 -25.195 l-7.8711 0 l0 -6.2891 l7.8711 0 z"></path></g></svg>